# xmcd
#
# Track frame offsets: 
#        150
#        19593
#        38811
#        61162
#        75560
#        94731
#        113315
#        132823
#        148530
#        169449
#
# Disc length: 2468 seconds
#
# Revision: 3
# Processed by: cddbd v1.5.2PL0 Copyright (c) Steve Scherf et al.
# Submitted via: ExactAudioCopy v1.0b3
#
DISCID=7409a20a
DTITLE=Gilberto Santa Rosa - Directo Al Corazon
DYEAR=2006
DGENRE=Salsa
TTITLE0=Locura De Amor
TTITLE1=Hablando Claro (Balada)
TTITLE2=Isla Del Encanto
TTITLE3=No Lo Recuerdas
TTITLE4=Hablando Claro (Salsa)
TTITLE5=Cuando Te Encuentre
TTITLE6=Te Extraare
TTITLE7=De La Pasion A La Ternura
TTITLE8=Por La Herida De Un Amor
TTITLE9=Vuelve De Una Vez
EXTD=YEAR: 2006
EXTT0=
EXTT1=
EXTT2=
EXTT3=
EXTT4=
EXTT5=
EXTT6=
EXTT7=
EXTT8=
EXTT9=
PLAYORDER=
